<svg width="640" height="260" viewBox="0 0 640 260" fill="none" xmlns="http://www.w3.org/2000/svg">
  <defs>
    <linearGradient id="shieldGrad" x1="0" y1="0" x2="1" y2="1">
      <stop offset="0%" stop-color="#C73E3B"/>
      <stop offset="100%" stop-color="#A4212D"/>
    </linearGradient>
  </defs>

  <g transform="translate(0 0)">
    <path d="M70 185L160 40L250 185H70Z" fill="url(#shieldGrad)"/>
    <path d="M92 170L160 75L228 170H92Z" fill="#D34B42" opacity="0.95"/>
    <path d="M127 170L160 95L193 170H127Z" fill="#E6A93E" opacity="0.9"/>

    <path d="M142 148C134 148 126 140 126 131V113C126 104 133 97 142 97H145C154 97 161 104 161 113V131C161 140 154 148 145 148H142Z" fill="#F5D67A"/>
    <path d="M160 146L183 120L210 171H160V146Z" fill="#F5D67A"/>
    <path d="M160 146L137 120L110 171H160V146Z" fill="#F5D67A"/>
    <circle cx="155" cy="108" r="9" fill="#F5D67A"/>
    <circle cx="160" cy="122" r="5" fill="#F5D67A"/>

    <path d="M115 165C128 157 138 151 146 141L157 148C145 161 129 170 115 165Z" fill="#F5D67A"/>
    <path d="M205 165C192 157 182 151 174 141L163 148C175 161 191 170 205 165Z" fill="#F5D67A"/>

    <circle cx="125" cy="116" r="7" fill="#F5D67A"/>
    <circle cx="195" cy="116" r="7" fill="#F5D67A"/>
  </g>

  <g transform="translate(260 0)">
    <text x="0" y="118" fill="#10294B" font-size="40" font-weight="900" font-family="Arial, Helvetica, sans-serif" letter-spacing="-1">MODERN</text>
    <text x="0" y="165" fill="#C73E3B" font-size="48" font-weight="900" font-family="Arial, Helvetica, sans-serif" letter-spacing="-1">PENTATHLON</text>
    <text x="0" y="212" fill="#C73E3B" font-size="36" font-weight="700" font-family="Arial, Helvetica, sans-serif" letter-spacing="1">SRI LANKA</text>
  </g>
</svg>
